<?xml version="1.0" encoding="utf-8"?>
<svg viewBox="170.088 104.105 98.836 81.378" xmlns="http://www.w3.org/2000/svg">
  <path d="M 211.8692626953125 148.84251403808594 L 186.1817626953125 148.84251403808594 L 186.1817626953125 140.65501403808594 L 211.8692626953125 140.65501403808594 Z M 215.4942626953125 130.46751403808594 L 182.9317626953125 130.46751403808594 L 182.9317626953125 167.15501403808594 L 174.8067626953125 167.15501403808594 L 174.8067626953125 126.43626403808594 Q 174.8067626953125 125.59251403808594 175.1192626953125 124.84251403808594 Q 175.4317626953125 124.09251403808594 175.9786376953125 123.53001403808594 Q 176.5255126953125 122.96751403808594 177.2755126953125 122.65501403808594 Q 178.0255126953125 122.34251403808594 178.9005126953125 122.34251403808594 L 215.4942626953125 122.34251403808594 Z M 266.70115661621094 141.09251403808594 Q 266.70115661621094 143.87376403808594 266.01365661621094 146.06126403808594 Q 265.32615661621094 148.24876403808594 264.15428161621094 149.92063903808594 Q 262.98240661621094 151.59251403808594 261.45115661621094 152.78001403808594 Q 259.91990661621094 153.96751403808594 258.24803161621094 154.71751403808594 Q 256.57615661621094 155.46751403808594 254.87303161621094 155.81126403808594 Q 253.16990661621094 156.15501403808594 251.66990661621094 156.15501403808594 L 233.29490661621094 156.15501403808594 L 233.29490661621094 148.03001403808594 L 251.66990661621094 148.03001403808594 Q 253.23240661621094 147.90501403808594 254.49803161621094 147.38938903808594 Q 255.76365661621094 146.87376403808594 256.66990661621094 145.99876403808594 Q 257.57615661621094 145.12376403808594 258.07615661621094 143.88938903808594 Q 258.57615661621094 142.65501403808594 258.57615661621094 141.09251403808594 L 258.57615661621094 137.40501403808594 Q 258.41990661621094 135.87376403808594 257.91990661621094 134.59251403808594 Q 257.41990661621094 133.31126403808594 256.56053161621094 132.40501403808594 Q 255.70115661621094 131.49876403808594 254.48240661621094 130.98313903808594 Q 253.26365661621094 130.46751403808594 251.66990661621094 130.46751403808594 L 233.35740661621094 130.46751403808594 Q 231.73240661621094 130.46751403808594 230.88865661621094 131.31126403808594 Q 230.04490661621094 132.15501403808594 230.04490661621094 133.74876403808594 L 230.04490661621094 167.15501403808594 L 221.91990661621094 167.15501403808594 L 221.91990661621094 133.74876403808594 Q 221.91990661621094 130.62376403808594 223.06053161621094 128.43626403808594 Q 224.20115661621094 126.24876403808594 225.90428161621094 124.90501403808594 Q 227.60740661621094 123.56126403808594 229.60740661621094 122.95188903808594 Q 231.60740661621094 122.34251403808594 233.29490661621094 122.34251403808594 L 251.66990661621094 122.34251403808594 Q 254.41990661621094 122.34251403808594 256.60740661621094 123.04563903808594 Q 258.79490661621094 123.74876403808594 260.46678161621094 124.92063903808594 Q 262.13865661621094 126.09251403808594 263.31053161621094 127.62376403808594 Q 264.48240661621094 129.15501403808594 265.24803161621094 130.82688903808594 Q 266.01365661621094 132.49876403808594 266.35740661621094 134.20188903808594 Q 266.70115661621094 135.90501403808594 266.70115661621094 137.40501403808594 Z" transform="matrix(1, 0, 0, 1, 0, 0)" style="fill: rgb(96, 60, 186); white-space: pre;"/>
</svg>