<?xml version="1.0" standalone="no"?>
<!DOCTYPE svg PUBLIC "-//W3C//DTD SVG 20010904//EN"
 "http://www.w3.org/TR/2001/REC-SVG-20010904/DTD/svg10.dtd">
<svg version="1.0" xmlns="http://www.w3.org/2000/svg"
 width="792.000000pt" height="792.000000pt" viewBox="0 0 792.000000 792.000000"
 preserveAspectRatio="xMidYMid meet">
<metadata>
Created by potrace 1.14, written by Peter Selinger 2001-2017
</metadata>
<g transform="translate(0.000000,792.000000) scale(0.100000,-0.100000)"
fill="#000000" stroke="none">
<path d="M686 5763 c-3 -3 -20 -8 -38 -10 -48 -5 -133 -47 -170 -85 -44 -45
-62 -73 -83 -137 -17 -51 -18 -148 -18 -1703 0 -907 3 -1651 6 -1655 5 -4 396
-7 605 -4 l42 1 0 1469 0 1468 1298 1 c713 0 1300 1 1304 1 4 1 6 117 6 260 0
142 2 263 6 269 3 6 2 13 -3 16 -4 3 -6 24 -4 46 5 42 -11 75 -30 63 -14 -9
-68 -10 -73 -1 -2 3 -17 3 -32 -1 -15 -4 -40 -5 -57 -1 -16 3 -52 3 -78 -1
-26 -3 -50 -2 -53 3 -3 5 -10 5 -17 1 -6 -3 -45 -6 -86 -4 -82 2 -86 2 -176 1
-33 0 -78 -1 -100 0 -22 0 -57 -1 -77 -3 -21 -1 -38 1 -38 5 0 4 -12 3 -26 -2
-18 -7 -23 -7 -18 2 4 6 3 8 -4 4 -14 -8 -189 -12 -197 -4 -4 3 -19 3 -33 -1
-15 -4 -40 -5 -57 -1 -16 3 -52 3 -78 -1 -26 -3 -50 -2 -53 3 -3 5 -10 5 -17
1 -6 -3 -45 -6 -86 -4 -42 1 -85 2 -96 2 -23 -1 -110 -1 -205 -2 -36 0 -72 0
-80 0 -72 2 -133 1 -140 -4 -5 -3 -11 -1 -15 5 -4 6 -11 7 -18 3 -6 -3 -45 -6
-86 -4 -42 1 -85 2 -96 2 -23 -1 -110 -1 -205 -2 -36 0 -72 0 -80 0 -72 2
-133 1 -140 -4 -5 -3 -11 -1 -15 5 -4 6 -11 7 -18 3 -6 -3 -45 -6 -86 -4 -42
1 -85 2 -96 1 -11 0 -53 0 -92 -1 -40 0 -77 2 -81 5 -5 3 -12 3 -16 -1z"/>
<path d="M5037 5764 c-3 -4 -27 -8 -54 -10 -26 -2 -59 -7 -73 -10 -14 -3 -36
-8 -50 -10 -40 -8 -141 -40 -195 -64 -46 -20 -165 -91 -191 -115 -6 -5 -26
-24 -45 -41 -127 -116 -224 -287 -255 -446 -2 -13 -7 -34 -10 -48 -12 -45 -11
-2850 0 -2851 61 -3 636 -3 637 1 1 3 3 622 4 1375 2 754 5 1377 7 1386 10 40
54 108 85 129 69 48 77 48 948 46 807 -2 821 -3 877 -23 175 -65 285 -187 340
-378 21 -74 23 -99 23 -330 0 -137 -4 -259 -9 -270 -5 -11 -10 -26 -12 -33 -1
-7 -15 -40 -32 -75 -34 -72 -116 -161 -187 -204 -53 -31 -135 -66 -135 -58 0
3 -10 1 -21 -6 -39 -21 -72 -22 -549 -25 -261 -2 -477 -4 -480 -5 -6 -1 -98 3
-125 5 -11 1 -23 1 -28 -2 -4 -2 -105 -3 -225 -2 l-217 1 0 -326 0 -326 815 4
c448 2 827 6 841 9 35 8 142 31 152 34 4 1 8 2 10 4 1 1 9 3 17 5 23 4 107 33
127 44 10 5 45 22 78 37 133 64 289 184 385 299 59 71 128 194 178 317 10 25
40 132 47 168 22 115 26 178 26 405 1 200 -7 370 -17 386 -2 4 -6 24 -10 45
-3 20 -10 48 -15 61 -5 13 -7 23 -4 23 4 0 -50 152 -64 177 -6 10 -18 36 -28
58 -9 22 -21 45 -25 50 -5 6 -27 39 -49 75 -54 84 -132 176 -192 226 -26 21
-62 51 -79 65 -16 14 -46 34 -67 44 -20 11 -43 24 -51 30 -42 31 -223 97 -333
121 -32 7 -103 15 -172 19 -33 2 -62 4 -65 5 -3 2 -9 1 -15 0 -23 -5 -135 -3
-141 3 -3 3 -17 2 -30 -3 -14 -6 -26 -6 -29 1 -4 5 -11 6 -18 2 -6 -3 -45 -6
-86 -4 -103 2 -99 2 -159 -1 -30 -2 -56 0 -59 5 -2 4 -9 4 -16 0 -6 -3 -45 -6
-86 -4 -97 2 -95 2 -169 -1 -34 -2 -62 0 -62 4 0 4 -12 3 -26 -2 -18 -7 -23
-7 -18 2 4 6 3 8 -4 4 -14 -8 -189 -12 -197 -4 -4 3 -19 3 -33 -1 -15 -4 -40
-5 -57 -1 -16 3 -52 3 -78 -1 -26 -3 -50 -2 -53 3 -3 5 -10 5 -17 1 -15 -9
-138 -10 -158 -1 -9 4 -19 5 -22 2z"/>
<path d="M1502 4292 l-212 -2 2 -328 3 -327 1025 0 1025 0 2 328 1 327 -66 0
c-761 3 -1614 4 -1780 2z"/>
</g>
</svg>
